<svg xmlns="http://www.w3.org/2000/svg" viewBox="0 0 226.47 82.1"><defs><style>.a{font-size:52.1px;font-family:BCSklonar-Medium, BC Sklonar;font-weight:500;letter-spacing:-0.11em;}.a,.d{fill:#333;}.b{fill:#db4b55;}.c{fill:#f7c065;}.e{fill:#e1706d;}.f{fill:#f4b33b;}</style></defs><text class="a" transform="translate(53.61 63.72) scale(1.31 1)">Code</text><path class="b" d="M187.43,30.41V47.34h-7.52V5h14.74c7.3,0,13.29,4.29,13.29,9.62v6.1c0,3.8-3.21,7.2-7.59,8.74l12.71,17.38-7.75.34L192.9,30.41Zm7.22-20.34h-7.22V25.35h7.22c3.22,0,5.77-2.09,5.77-4.62v-6.1C200.42,12.1,197.87,10.07,194.65,10.07Z" transform="translate(0 17.62)"/><path class="b" d="M200.34,64.48h-8l13.06-17.21-12-16.22h8l8.1,11.11,8.18-11.11h8.1L213.47,47.22l13,17.26h-8.25l-8.91-12Z" transform="translate(0 17.62)"/><path class="c" d="M19.55,44.1l-.06,0A12.54,12.54,0,0,1,5.18,41.76a11.79,11.79,0,0,1-1.8-2.3A12.09,12.09,0,0,1,6.89,23.34l.06,0,16.12-9.47,1.28,27.44Z" transform="translate(0 17.62)"/><path class="d" d="M21.53,16.65l.78,16.6.33,7.12-3.89,2.29a10.85,10.85,0,0,1-12.38-2A10.39,10.39,0,0,1,7.85,24.69l13.68-8M24.61,11l-4.78,2.81-13.69,8-.1.06L5.93,22A13.73,13.73,0,0,0,.32,30.39,13.49,13.49,0,0,0,2,40.3a14.17,14.17,0,0,0,18.28,5.3l.12-.06.1-.06,3.9-2.29,1.71-1-.09-2-.33-7.12-.77-16.6L24.61,11Z" transform="translate(0 17.62)"/><path class="e" d="M24.22,41.36l-1-27.63,4.91-2.88.05,0a12.61,12.61,0,0,1,16.34,4.53,12.2,12.2,0,0,1-3.74,16.26l-.05,0Z" transform="translate(0 17.62)"/><path class="d" d="M29,12.29a10.92,10.92,0,0,1,14.16,3.9,10.57,10.57,0,0,1-3.27,14.08L25.79,38.52,25,14.64l4-2.35M27.35,9.41l-.1.06-4,2.35-1.7,1,.07,1.94.84,23.87.19,5.56,4.85-2.85,14.06-8.25.1-.07.1-.06a14.13,14.13,0,0,0,5.78-8.45,13.43,13.43,0,0,0-1.55-10A14.31,14.31,0,0,0,27.46,9.35l-.11.06Z" transform="translate(0 17.62)"/><path class="f" d="M13.32,43.71A9.51,9.51,0,0,0,18.06,43c.46-.23,1.09-.59,2.35-1.32.89-.52,1.62-1,2.11-1.27l-.29-7a55.79,55.79,0,0,1-7.45,4.15,56.14,56.14,0,0,1-8.41,3.06A11.37,11.37,0,0,0,13.32,43.71Z" transform="translate(0 17.62)"/><path class="b" d="M25.82,38.57l-.17-7.42c2.88-1.78,5.29-3.3,7.1-4.45,3.68-2.34,4.73-3.05,5.87-3.9A57.5,57.5,0,0,0,44,18.29a9.8,9.8,0,0,1,.54,2.78,10,10,0,0,1-1,4.75,10.63,10.63,0,0,1-1.14,1.83,13.32,13.32,0,0,1-2.6,2.62l-6.74,3.95A84.79,84.79,0,0,0,25.82,38.57Z" transform="translate(0 17.62)"/><path class="d" d="M14.4,26.84l1.37,2.39-2.93,5.1,6,.16,1.38,2.38-8.92-.65-.88-1.53Z" transform="translate(0 17.62)"/><path class="d" d="M32.84,29.79l-1.37-2.38,2.92-5.12-6-.14-1.37-2.38,8.9.62.89,1.54Z" transform="translate(0 17.62)"/><text y="17.62"/></svg>