<svg xmlns="http://www.w3.org/2000/svg" viewBox="0 0 445.52 242.82"><defs><style>.a{fill:#ffd067;}.b{fill:#231f20;}.c{fill:#de646e;}.d{fill:#ebb244;}.e{fill:#db4b55;}</style></defs><path class="a" d="M114.21,228.31l-.55,0A107.3,107.3,0,0,1,14.5,121.14c.14-55.57,43.69-102.4,99.16-106.6l.55,0H277.48L162.88,228.31Z"/><path class="b" d="M253.26,29,184,158.29,154.2,213.82H114.76c-40.68-3.09-73.84-32.56-83.15-70.66a91.85,91.85,0,0,1-2.61-22C29.12,73.1,66.71,32.64,114.76,29h138.5M301.7,0h-188l-1.09.08A121.52,121.52,0,0,0,42.5,213.6a120.68,120.68,0,0,0,70.07,29.13l1.09.09h57.9l8.2-15.3L209.52,172,278.82,42.7,301.7,0Z"/><path class="c" d="M161.56,228.31,279.31,14.5h49.63l.53,0C386.55,18.75,431.16,65.81,431,121.67c-.15,55.59-44.75,102.42-101.55,106.61l-.53,0Z"/><path class="b" d="M328.4,29c49.54,3.65,88.24,44.39,88.12,92.64-.13,48.07-38.75,88.54-88.12,92.18H186.1L287.88,29H328.4m1.07-29H270.74l-8.26,15L160.7,199.83l-23.67,43H329.47l1.07-.08a125,125,0,0,0,81.35-38.32,119.83,119.83,0,0,0,33.63-82.71c.16-63.44-50.35-116.86-115-121.63L329.47,0Z"/><path class="d" d="M69.53,197.6c6.23,4.27,20.17,13.8,38.73,15.4,4.5.38,10.85.4,23.54.44,9,0,16.43-.07,21.48-.17l29.38-54.15a475.57,475.57,0,0,1-74.35-1.74,476.7,476.7,0,0,1-76.7-14.22C34,151.75,42.78,179.3,69.53,197.6Z"/><path class="e" d="M186.1,214.3l32.27-57c29.54-.7,54.44-1.48,73.21-2.14,38-1.33,49.08-2,61.44-3.38a509.5,509.5,0,0,0,60.72-10.21,88.59,88.59,0,0,1-37.28,55.23,93,93,0,0,1-16.78,8.74,117.82,117.82,0,0,1-31.28,8.3H260.17S217.15,211.84,186.1,214.3Z"/><path class="b" d="M76.37,125.08v-6.34q0-4.87,5-7.81L146,72.69a9.41,9.41,0,0,1,5.28-1.76,7.81,7.81,0,0,1,5.61,2.44,8,8,0,0,1,2.49,6,7.27,7.27,0,0,1-3.61,6.74L95.32,121.85l60.48,35.57a7.75,7.75,0,0,1,3.58,6.94,8.09,8.09,0,0,1-2.49,6,7.81,7.81,0,0,1-5.61,2.44A10.15,10.15,0,0,1,146,171L81.35,132.89Q76.37,130.16,76.37,125.08Z"/><path class="b" d="M362.23,118.72v6.36q0,5-4.76,7.84L292.8,171a10.27,10.27,0,0,1-5.37,1.75,8,8,0,0,1-5.62-2.34,7.84,7.84,0,0,1-2.49-6,7.34,7.34,0,0,1,3.7-6.85l60.37-35.78L283,86.31a8.51,8.51,0,0,1-1.2-13,8,8,0,0,1,5.62-2.35,10.53,10.53,0,0,1,5.37,1.76l64.66,38.19Q362.23,113.73,362.23,118.72Z"/></svg>
