<?xml version="1.0" encoding="UTF-8" standalone="no"?>
<!DOCTYPE svg PUBLIC "-//W3C//DTD SVG 1.1//EN" "http://www.w3.org/Graphics/SVG/1.1/DTD/svg11.dtd">
<svg version="1.1" xmlns="http://www.w3.org/2000/svg" xmlns:xlink="http://www.w3.org/1999/xlink" preserveAspectRatio="xMidYMid meet" viewBox="0 0 1100 425" width="1100" height="425"><defs><path d="M852.47 13.91C839.07 15.83 811.17 27.05 781.48 42.48C773.51 46.63 778.01 56.61 791.08 63.73C791.91 64.19 796.06 66.45 803.54 70.53C803.43 82.59 803.36 89.28 803.35 90.62C803.24 101.67 802.09 115.46 800.79 121.26C798.67 130.73 795.64 156.11 790.94 203.76C790.06 212.73 788.49 226.97 787.46 235.41C784.19 262.29 784.81 288.27 788.87 294.89C809.28 328.11 830.08 320.57 833.44 278.74C834.36 267.26 836.43 250.33 838.04 241.11C839.64 231.9 840.96 219.4 840.96 213.34C840.96 187.47 845.82 183.6 854.44 202.61C862.01 219.31 875.15 236.32 904.57 267.5C906.23 269.25 914.5 278.02 929.41 293.82C928.49 309.68 927.97 318.49 927.87 320.26C923.87 389.06 927.95 409.87 945.92 412.28C955.33 413.55 959 409.46 960.9 395.62C962.32 385.25 971.28 336.57 972.64 331.82C974.3 326.02 978.69 328.06 994.96 342.13C1035.79 377.45 1066.2 386.23 1074.91 365.19C1079 355.32 1077.02 351.26 1064.74 344.36C1045.82 333.74 984.89 279.06 984.86 272.68C984.83 266.37 1010.63 216.31 1016.37 211.55C1026.59 203.07 1019.12 188.41 1004.58 188.41C987.61 188.41 973.74 200.12 962.64 223.84C959.12 231.34 955.68 238.05 954.99 238.74C951.91 241.81 888.92 180.02 888.92 173.93C888.92 171.25 899.27 164.14 913.96 156.73C949.86 138.61 986.06 85.16 977.1 63.51C963.03 29.56 904.9 6.42 852.47 13.91M522.47 67.54C522.47 87.59 522.01 103.99 521.44 103.99C520.87 103.99 517.2 102.37 513.28 100.38C476.21 81.58 421.62 96.59 406.13 129.85C400.23 142.53 399.11 245.63 404.69 262.02C416.66 297.15 471.55 313.86 512.55 294.87C513.21 294.56 516.51 293.03 522.45 290.28C523.16 293.1 523.55 294.67 523.63 294.99C524.79 299.62 525.13 299.69 545.71 299.69C547.1 299.69 554.06 299.69 566.6 299.69L566.6 165.39L566.6 31.09L544.54 31.09L522.47 31.09L522.47 67.54M77.87 41.72C54.73 47.95 35.74 61.84 28.16 78.09C22.76 89.66 21.14 245.22 26.28 259.57C50.49 327.33 196.32 312.42 196.32 242.19C196.32 241.55 196.32 238.33 196.32 232.54L174.5 232.54L152.68 232.54C151.89 238.5 151.45 241.81 151.37 242.47C148.68 262.7 136.82 270.82 109.98 270.82C69.61 270.82 69.7 271.05 69.7 169.48C69.7 164.06 69.69 136.96 69.69 88.19C74.03 83.85 76.45 81.44 76.93 80.95C102.31 55.57 152.11 71.13 152.18 104.47C152.18 104.82 152.18 106.58 152.19 109.75L174.51 109.75L196.83 109.75C196.26 101.78 195.94 97.35 195.88 96.46C192.84 54.02 133.84 26.65 77.87 41.72M924.88 58.33C941.19 66.11 924.82 101.21 898.73 114.44C886.61 120.58 864.63 135.52 856.82 142.93C848.57 150.76 847.94 149.46 850.38 129.57C851.52 120.25 852.46 108.87 852.46 104.27C852.47 92.12 858.41 61.56 860.9 60.86C883.85 54.43 914.2 53.23 924.88 58.33M271.35 94.56C250.43 98.66 229.12 112.77 219.75 128.72C219.4 129.31 217.66 132.26 214.54 137.57C214.19 171.17 214 189.84 213.96 193.57C213.32 255.05 213.96 260.35 223.71 273.06C260 320.41 363.21 308.99 376.55 256.15C379.86 243.02 379.2 148.99 375.71 137.24C366.18 105.14 317.94 85.41 271.35 94.56M658.9 94.43C637.57 98.94 616.63 112.85 607.3 128.72C606.95 129.31 605.22 132.26 602.09 137.57C601.74 171.17 601.55 189.84 601.51 193.57C600.87 255.05 601.52 260.35 611.26 273.06C650.23 323.9 759.6 306.8 765.57 248.94C765.65 248.23 766.01 244.68 766.67 238.29L744.34 238.29L722.01 238.29C722.01 242.15 722.01 244.3 722.01 244.72C722.01 273.52 664.97 283.05 649.03 256.92C645.99 251.92 645.28 247.24 645.27 232.06C645.27 230.81 645.27 224.58 645.26 213.35L705.7 213.35L766.13 213.35C766.11 191.77 766.09 179.78 766.09 177.38C766.04 132.48 762.59 123.13 740.49 108.05C721.76 95.27 684.44 89.04 658.9 94.43M317.15 127.49C333.53 135.87 333.42 135.43 334.03 195.74C334.72 264.95 331.33 271.76 296.08 271.79C260.77 271.82 257.71 265.93 257.71 198C257.71 130.64 261.54 123.18 296.08 123.18C305.38 123.18 310.92 124.31 317.15 127.49M505.27 127.49C522.14 136.02 522.48 137.37 522.47 196.85C522.47 242.51 522.06 249.66 519.11 255.55C508.58 276.6 464.19 278 450.41 257.72C450.1 257.26 448.54 254.96 445.73 250.83L445.73 196.67L445.73 142.5C449.45 138.26 451.52 135.91 451.93 135.44C463.48 122.28 487.78 118.66 505.27 127.49M703.78 126.81C718.78 133.73 720.96 137.98 721.7 161.7C721.74 163.1 721.96 170.08 722.35 182.65L683.8 182.65L645.26 182.65C645.26 171.31 645.26 165.01 645.26 163.75C645.26 129.48 672.42 112.33 703.78 126.81" id="bYuBhZc0Y"></path></defs><g><g><g><use xlink:href="#bYuBhZc0Y" opacity="1" fill="#000000" fill-opacity="1"></use><g><use xlink:href="#bYuBhZc0Y" opacity="1" fill-opacity="0" stroke="#000000" stroke-width="1" stroke-opacity="0"></use></g></g></g></g></svg>