<?xml version="1.0" encoding="UTF-8" standalone="no"?>
<!DOCTYPE svg PUBLIC "-//W3C//DTD SVG 1.1//EN" "http://www.w3.org/Graphics/SVG/1.1/DTD/svg11.dtd">
<svg version="1.1" xmlns="http://www.w3.org/2000/svg" xmlns:xlink="http://www.w3.org/1999/xlink" preserveAspectRatio="xMidYMid meet" viewBox="0 0 500 500" width="500" height="500"><defs><path d="M348.78 151.56L352.9 151.65L356.98 151.89L361.01 152.3L364.99 152.87L368.92 153.6L372.8 154.47L376.62 155.49L380.37 156.66L384.07 157.98L387.69 159.43L391.24 161.01L394.72 162.73L398.12 164.58L401.44 166.55L404.68 168.65L407.82 170.87L410.88 173.2L413.85 175.65L416.71 178.2L419.48 180.87L422.14 183.63L424.7 186.5L427.14 189.46L429.48 192.52L431.69 195.67L433.79 198.9L435.76 202.22L437.61 205.62L439.33 209.1L440.92 212.65L442.37 216.28L443.68 219.97L444.85 223.73L445.87 227.54L446.75 231.42L447.47 235.35L448.04 239.33L448.45 243.37L448.7 247.44L448.78 251.56L448.7 255.68L448.45 259.76L448.04 263.79L447.47 267.77L446.75 271.71L445.87 275.58L444.85 279.4L443.68 283.16L442.37 286.85L440.92 290.47L439.33 294.02L437.61 297.5L435.76 300.9L433.79 304.22L431.69 307.46L429.48 310.61L427.14 313.66L424.7 316.63L422.14 319.49L419.48 322.26L416.71 324.92L413.85 327.48L410.88 329.92L407.82 332.26L404.68 334.47L401.44 336.57L398.12 338.55L394.72 340.39L391.24 342.11L387.69 343.7L384.07 345.15L380.37 346.46L376.62 347.63L372.8 348.65L368.92 349.53L364.99 350.25L361.01 350.82L356.98 351.23L352.9 351.48L348.78 351.56L348.48 351.56L149.09 351.56L148.78 351.56L144.66 351.48L140.58 351.23L136.55 350.82L132.57 350.25L128.64 349.53L124.76 348.65L120.94 347.63L117.19 346.46L113.5 345.15L109.87 343.7L106.32 342.11L102.84 340.39L99.44 338.55L96.12 336.57L92.89 334.47L89.74 332.26L86.68 329.92L83.72 327.48L80.85 324.92L78.08 322.26L75.42 319.49L72.87 316.63L70.42 313.66L68.09 310.61L65.87 307.46L63.77 304.22L61.8 300.9L59.95 297.5L58.23 294.02L56.65 290.47L55.19 286.85L53.88 283.16L52.71 279.4L51.69 275.58L50.81 271.71L50.09 267.77L49.52 263.79L49.11 259.76L48.86 255.68L48.78 251.56L48.86 247.44L49.11 243.37L49.52 239.33L50.09 235.35L50.81 231.42L51.69 227.54L52.71 223.73L53.88 219.97L55.19 216.28L56.65 212.65L58.23 209.1L59.95 205.62L61.8 202.22L63.77 198.9L65.87 195.67L68.09 192.52L70.42 189.46L72.87 186.5L75.42 183.63L78.08 180.87L80.85 178.2L83.72 175.65L86.68 173.2L89.74 170.87L92.89 168.65L96.12 166.55L99.44 164.58L102.84 162.73L106.32 161.01L109.87 159.43L113.5 157.98L117.19 156.66L120.94 155.49L124.76 154.47L128.64 153.6L132.57 152.87L136.55 152.3L140.58 151.89L144.66 151.65L148.78 151.56L148.78 151.56L348.78 151.56L348.78 151.56L348.78 151.56Z" id="a24K9zBKAz"></path><path d="M215.28 355.86L279.93 157.09" id="a60yiCH1Py"></path><path d="M189.61 301.75L114.61 251.75L189.61 201.75" id="deo9c2jwO"></path><path d="M307.61 301.75L382.61 251.75L307.61 201.75" id="c1ubXkAmUS"></path></defs><g><g><g><g><use xlink:href="#a24K9zBKAz" opacity="1" fill-opacity="0" stroke="#000000" stroke-width="25" stroke-opacity="1"></use></g></g><g><g><use xlink:href="#a60yiCH1Py" opacity="1" fill-opacity="0" stroke="#000000" stroke-width="25" stroke-opacity="1"></use></g></g><g><g><use xlink:href="#deo9c2jwO" opacity="1" fill-opacity="0" stroke="#000000" stroke-width="20" stroke-opacity="1"></use></g></g><g><g><use xlink:href="#c1ubXkAmUS" opacity="1" fill-opacity="0" stroke="#000000" stroke-width="20" stroke-opacity="1"></use></g></g></g></g></svg>